<svg width="24" height="24" viewBox="0 0 24 24" fill="none" xmlns="http://www.w3.org/2000/svg">
<path d="M7.99768 21.9935C8.54997 21.9935 8.99768 21.5458 8.99768 20.9935C8.99768 20.4412 8.54997 19.9935 7.99768 19.9935C7.4454 19.9935 6.99768 20.4412 6.99768 20.9935C6.99768 21.5458 7.4454 21.9935 7.99768 21.9935Z" fill="#FFC107" fill-opacity="0.2" stroke="#FFC107" stroke-width="1.99935" stroke-linecap="round" stroke-linejoin="round"/>
<path d="M18.9941 21.9935C19.5464 21.9935 19.9941 21.5458 19.9941 20.9935C19.9941 20.4412 19.5464 19.9935 18.9941 19.9935C18.4419 19.9935 17.9941 20.4412 17.9941 20.9935C17.9941 21.5458 18.4419 21.9935 18.9941 21.9935Z" fill="#FFC107" fill-opacity="0.2" stroke="#FFC107" stroke-width="1.99935" stroke-linecap="round" stroke-linejoin="round"/>
<path d="M2.04932 2.04932H4.04867L6.7078 14.4653C6.80535 14.92 7.05836 15.3265 7.42328 15.6148C7.7882 15.9031 8.24221 16.0551 8.70715 16.0448H18.484C18.939 16.044 19.3802 15.8881 19.7346 15.6027C20.089 15.3174 20.3355 14.9197 20.4333 14.4753L22.0828 7.04769H5.11832" fill="#FFC107" fill-opacity="0.2"/>
<path d="M2.04932 2.04932H4.04867L6.7078 14.4653C6.80535 14.92 7.05836 15.3265 7.42328 15.6148C7.7882 15.9031 8.24221 16.0551 8.70715 16.0448H18.484C18.939 16.044 19.3802 15.8881 19.7346 15.6027C20.089 15.3174 20.3355 14.9197 20.4333 14.4753L22.0828 7.04769H5.11832" stroke="#FFC107" stroke-width="1.99935" stroke-linecap="round" stroke-linejoin="round"/>
</svg>
