<svg width="24" height="24" viewBox="0 0 24 24" fill="none" xmlns="http://www.w3.org/2000/svg">
<path d="M7.99773 21.9935C8.55001 21.9935 8.99773 21.5458 8.99773 20.9935C8.99773 20.4412 8.55001 19.9935 7.99773 19.9935C7.44544 19.9935 6.99773 20.4412 6.99773 20.9935C6.99773 21.5458 7.44544 21.9935 7.99773 21.9935Z" stroke="#FFC107" stroke-opacity="0.6" stroke-width="1.99935" stroke-linecap="round" stroke-linejoin="round"/>
<path d="M18.9942 21.9935C19.5464 21.9935 19.9942 21.5458 19.9942 20.9935C19.9942 20.4412 19.5464 19.9935 18.9942 19.9935C18.4419 19.9935 17.9942 20.4412 17.9942 20.9935C17.9942 21.5458 18.4419 21.9935 18.9942 21.9935Z" stroke="#FFC107" stroke-opacity="0.6" stroke-width="1.99935" stroke-linecap="round" stroke-linejoin="round"/>
<path d="M2.04933 2.04932H4.04868L6.70782 14.4653C6.80536 14.92 7.05837 15.3265 7.4233 15.6148C7.78822 15.9031 8.24222 16.0551 8.70717 16.0448H18.484C18.939 16.044 19.3802 15.8881 19.7346 15.6027C20.089 15.3174 20.3355 14.9197 20.4334 14.4753L22.0828 7.04769H5.11833" stroke="#FFC107" stroke-opacity="0.6" stroke-width="1.99935" stroke-linecap="round" stroke-linejoin="round"/>
</svg>
