<svg width="16" height="16" viewBox="0 0 16 16" fill="none" xmlns="http://www.w3.org/2000/svg">
<g clip-path="url(#clip0_1_245)">
<path d="M1.72279 11.6011C1.4729 11.8509 1.33247 12.1898 1.3324 12.5431V13.9901C1.3324 14.1668 1.40259 14.3362 1.52752 14.4612C1.65246 14.5861 1.82191 14.6563 1.99859 14.6563H3.99718C4.17387 14.6563 4.34332 14.5861 4.46825 14.4612C4.59319 14.3362 4.66338 14.1668 4.66338 13.9901V13.3239C4.66338 13.1472 4.73356 12.9778 4.8585 12.8528C4.98344 12.7279 5.15289 12.6577 5.32957 12.6577H5.99577C6.17245 12.6577 6.3419 12.5875 6.46684 12.4626C6.59178 12.3376 6.66196 12.1682 6.66196 11.9915V11.3253C6.66196 11.1486 6.73215 10.9792 6.85709 10.8542C6.98202 10.7293 7.15147 10.6591 7.32816 10.6591H7.44275C7.79609 10.659 8.13493 10.5186 8.38475 10.2687L8.92703 9.72643C9.85293 10.049 10.8609 10.0477 11.786 9.72293C12.7111 9.39814 13.4986 8.769 14.0197 7.93845C14.5407 7.10789 14.7645 6.12509 14.6544 5.15082C14.5443 4.17656 14.1068 3.2685 13.4135 2.5752C12.7202 1.8819 11.8121 1.44441 10.8379 1.33429C9.86359 1.22417 8.88079 1.44795 8.05023 1.96901C7.21968 2.49007 6.59054 3.27757 6.26574 4.20268C5.94094 5.12779 5.93971 6.13575 6.26225 7.06165L1.72279 11.6011Z" stroke="#2D6A7E" stroke-width="1.33239" stroke-linecap="round" stroke-linejoin="round"/>
<path d="M10.9922 5.32959C11.1762 5.32959 11.3253 5.18045 11.3253 4.99649C11.3253 4.81252 11.1762 4.66339 10.9922 4.66339C10.8083 4.66339 10.6591 4.81252 10.6591 4.99649C10.6591 5.18045 10.8083 5.32959 10.9922 5.32959Z" fill="#2D6A7E" stroke="#2D6A7E" stroke-width="1.33239" stroke-linecap="round" stroke-linejoin="round"/>
</g>
<defs>
<clipPath id="clip0_1_245">
<rect width="15.9887" height="15.9887" fill="white"/>
</clipPath>
</defs>
</svg>
