<svg width="20" height="20" viewBox="0 0 20 20" fill="none" xmlns="http://www.w3.org/2000/svg">
<path d="M15.8257 9.16229H4.16468C3.24464 9.16229 2.49881 9.90813 2.49881 10.8282V16.6587C2.49881 17.5787 3.24464 18.3246 4.16468 18.3246H15.8257C16.7458 18.3246 17.4916 17.5787 17.4916 16.6587V10.8282C17.4916 9.90813 16.7458 9.16229 15.8257 9.16229Z" stroke="#99A1AF" stroke-width="1.66587" stroke-linecap="round" stroke-linejoin="round"/>
<path d="M5.83054 9.16229V5.83056C5.83054 4.72602 6.26931 3.66672 7.05034 2.8857C7.83136 2.10467 8.89066 1.66589 9.9952 1.66589C11.0997 1.66589 12.159 2.10467 12.9401 2.8857C13.7211 3.66672 14.1599 4.72602 14.1599 5.83056V9.16229" stroke="#99A1AF" stroke-width="1.66587" stroke-linecap="round" stroke-linejoin="round"/>
</svg>
